<svg xmlns="http://www.w3.org/2000/svg" width="40" height="40" viewBox="0 0 40 40">
  <g id="_02" data-name="02" transform="translate(0 0.161)">
    <g id="base" transform="translate(0 -0.161)" fill="#cc9b55" stroke="#fff" stroke-linejoin="round" stroke-width="1">
      <rect width="40" height="40" stroke="none"/>
      <rect x="0.5" y="0.5" width="39" height="39" fill="none"/>
    </g>
    <g id="twitter_1_" data-name="twitter (1)" transform="translate(13.51 14.927)">
      <g id="Group_20429" data-name="Group 20429">
        <path id="Path_28677" data-name="Path 28677" d="M12.583,49.162a5.554,5.554,0,0,1-1.486.391,2.483,2.483,0,0,0,1.135-1.369,5.287,5.287,0,0,1-1.636.6A2.636,2.636,0,0,0,8.711,48a2.529,2.529,0,0,0-2.578,2.477,2.452,2.452,0,0,0,.06.565,7.406,7.406,0,0,1-5.317-2.59A2.418,2.418,0,0,0,.523,49.7a2.456,2.456,0,0,0,1.146,2.058A2.629,2.629,0,0,1,.5,51.456v.027A2.515,2.515,0,0,0,2.57,53.917,2.676,2.676,0,0,1,1.894,54a2.373,2.373,0,0,1-.488-.042,2.593,2.593,0,0,0,2.41,1.725,5.322,5.322,0,0,1-3.2,1.056A5.03,5.03,0,0,1,0,56.7a7.484,7.484,0,0,0,3.957,1.111A7.14,7.14,0,0,0,11.3,50.768c0-.109,0-.215-.009-.32A5.038,5.038,0,0,0,12.583,49.162Z" transform="translate(0 -48)" fill="#fff"/>
      </g>
    </g>
  </g>
</svg>
