<svg xmlns="http://www.w3.org/2000/svg" width="40" height="40" viewBox="0 0 40 40">
  <g id="_04" data-name="04" transform="translate(0 0.481)">
    <g id="base" transform="translate(0 -0.481)" fill="#cc9b55" stroke="#fff" stroke-linejoin="round" stroke-width="1">
      <rect width="40" height="40" stroke="none"/>
      <rect x="0.5" y="0.5" width="39" height="39" fill="none"/>
    </g>
    <g id="linkedin_5_" data-name="linkedin (5)" transform="translate(13.455 13.876)">
      <path id="Path_28684" data-name="Path 28684" d="M16.946,16.175h0V11.566c0-2.255-.506-3.992-3.251-3.992a2.874,2.874,0,0,0-2.567,1.355h-.038V7.785h-2.6v8.39H11.2V12.02c0-1.094.216-2.152,1.627-2.152,1.39,0,1.411,1.248,1.411,2.222v4.085Z" transform="translate(-3.859 -3.608)" fill="#fff"/>
      <path id="Path_28685" data-name="Path 28685" d="M.4,7.977H3.11v8.39H.4Z" transform="translate(-0.18 -3.8)" fill="#fff"/>
      <path id="Path_28686" data-name="Path 28686" d="M1.572,0A1.542,1.542,0,0,0,0,1.509,1.554,1.554,0,0,0,1.572,3.032,1.554,1.554,0,0,0,3.144,1.509,1.543,1.543,0,0,0,1.572,0Z" fill="#fff"/>
    </g>
  </g>
</svg>
