<svg xmlns="http://www.w3.org/2000/svg" width="27.652" height="26.925" viewBox="0 0 27.652 26.925">
  <g id="shopping-cart_2_" data-name="shopping-cart (2)" transform="translate(0.4 0.4)">
    <g id="Group_20481" data-name="Group 20481" transform="translate(0 0)">
      <g id="Group_20480" data-name="Group 20480" transform="translate(0 0)">
        <path id="Path_28705" data-name="Path 28705" d="M99.455,350.322a2.8,2.8,0,1,0,2.8,2.8A2.8,2.8,0,0,0,99.455,350.322Zm0,4.359a1.557,1.557,0,1,1,1.557-1.557A1.557,1.557,0,0,1,99.455,354.681Z" transform="translate(-90.892 -329.802)" fill="#fff" stroke="#fff" stroke-width="0.8"/>
        <path id="Path_28706" data-name="Path 28706" d="M297.986,350.322a2.8,2.8,0,1,0,2.8,2.8A2.8,2.8,0,0,0,297.986,350.322Zm0,4.359a1.557,1.557,0,1,1,1.557-1.557A1.557,1.557,0,0,1,297.986,354.681Z" transform="translate(-277.591 -329.802)" fill="#fff" stroke="#fff" stroke-width="0.8"/>
        <path id="Path_28707" data-name="Path 28707" d="M26.717,10.2a.779.779,0,0,0-.5-.249L5.947,9.671l-.56-1.713A2.865,2.865,0,0,0,2.709,6.028H.623a.623.623,0,1,0,0,1.246H2.709A1.619,1.619,0,0,1,4.2,8.363L8.158,20.289l-.311.716a2.989,2.989,0,0,0,.28,2.709,2.9,2.9,0,0,0,2.335,1.308H22.575a.623.623,0,1,0,0-1.246H10.462a1.588,1.588,0,0,1-1.308-.747A1.713,1.713,0,0,1,9,21.535l.249-.56L22.357,19.6a3.425,3.425,0,0,0,2.958-2.616L26.81,10.73A.529.529,0,0,0,26.717,10.2ZM24.1,16.708a2.117,2.117,0,0,1-1.9,1.65L9.248,19.7l-2.9-8.781,19.088.28Z" transform="translate(0 -6.028)" fill="#fff" stroke="#fff" stroke-width="0.8"/>
        <circle id="Ellipse_1508" data-name="Ellipse 1508" cx="2" cy="2" r="2" transform="translate(6.747 21.53)" fill="#fff"/>
        <circle id="Ellipse_1509" data-name="Ellipse 1509" cx="2" cy="2" r="2" transform="translate(18.747 21.53)" fill="#fff"/>
      </g>
    </g>
  </g>
</svg>
