<svg id="Group_20475" data-name="Group 20475" xmlns="http://www.w3.org/2000/svg" width="25.766" height="28.595" viewBox="0 0 25.766 28.595">
  <g id="notification_3_" data-name="notification (3)" transform="translate(0 2.875)">
    <g id="Group_20474" data-name="Group 20474">
      <g id="Group_20473" data-name="Group 20473">
        <path id="Path_28701" data-name="Path 28701" d="M192,472h-5.025a1,1,0,1,0,0,2.009H192A1,1,0,1,0,192,472Z" transform="translate(-179.469 -448.289)" fill="#fff"/>
        <path id="Path_28702" data-name="Path 28702" d="M76.445,21.266,74.6,17.418V8.07a8.073,8.073,0,0,0-16.146,0v9.348L56.6,21.266a1,1,0,0,0,.906,1.44H75.539a1,1,0,0,0,.906-1.44ZM59.1,20.7l1.257-2.614a1,1,0,0,0,.1-.435V8.07a6.063,6.063,0,0,1,12.126,0v9.577a1,1,0,0,0,.1.435L73.941,20.7Z" transform="translate(-56.5)" fill="#fff"/>
      </g>
    </g>
  </g>
  <circle id="Ellipse_1506" data-name="Ellipse 1506" cx="6" cy="6" r="6" transform="translate(13.765)" fill="#494543"/>
  <circle id="Ellipse_1507" data-name="Ellipse 1507" cx="3.5" cy="3.5" r="3.5" transform="translate(16.115 2.5)" fill="#cc9b55"/>
</svg>
