<svg xmlns="http://www.w3.org/2000/svg" width="26.377" height="26.377" viewBox="0 0 26.377 26.377">
  <g id="loupe_1_" data-name="loupe (1)" transform="translate(0 0)">
    <g id="Group_20477" data-name="Group 20477" transform="translate(0 0)">
      <g id="Group_20476" data-name="Group 20476">
        <path id="Path_28703" data-name="Path 28703" d="M11.616,0A11.616,11.616,0,1,0,23.232,11.616,11.629,11.629,0,0,0,11.616,0Zm0,21.087a9.471,9.471,0,1,1,9.471-9.471A9.482,9.482,0,0,1,11.616,21.087Z" fill="#fff"/>
      </g>
    </g>
    <g id="Group_20479" data-name="Group 20479" transform="translate(18.085 18.085)">
      <g id="Group_20478" data-name="Group 20478">
        <path id="Path_28704" data-name="Path 28704" d="M359.023,357.507l-6.147-6.147a1.072,1.072,0,1,0-1.516,1.516l6.147,6.147a1.072,1.072,0,0,0,1.516-1.516Z" transform="translate(-351.046 -351.046)" fill="#fff"/>
      </g>
    </g>
  </g>
</svg>
