<svg xmlns="http://www.w3.org/2000/svg" width="25.624" height="25.624" viewBox="0 0 25.624 25.624">
  <path id="user_10_" data-name="user (10)" d="M21.871,3.752A12.812,12.812,0,0,0,3.752,21.871,12.812,12.812,0,0,0,21.871,3.752ZM6.422,22.14a6.487,6.487,0,0,1,12.778,0,11.286,11.286,0,0,1-12.778,0ZM8.738,11.2a4.074,4.074,0,1,1,4.074,4.074A4.078,4.078,0,0,1,8.738,11.2ZM20.5,21.1a8,8,0,0,0-4.652-5.222,5.575,5.575,0,1,0-6.075,0A8,8,0,0,0,5.122,21.1a11.31,11.31,0,1,1,15.379,0Zm0,0" transform="translate(0)" fill="#fff"/>
</svg>
